<?xml version="1.0" encoding="utf-8"?>
<!-- Generator: Adobe Illustrator 22.1.0, SVG Export Plug-In . SVG Version: 6.00 Build 0)  -->
<svg version="1.1" xmlns="http://www.w3.org/2000/svg" xmlns:xlink="http://www.w3.org/1999/xlink" x="0px" y="0px"
	 viewBox="0 0 785 480" style="enable-background:new 0 0 785 480;" xml:space="preserve">
<style type="text/css">
	.st0{display:none;}
	.st1{display:inline;fill:#BBBBBB;}
	.st2{fill:none;}
	.st3{fill:#FFFFFF;}
	.st4{font-family:'Montserrat-ExtraBold';}
	.st5{font-size:100px;}
	.st6{font-family:'Montserrat-Regular';}
	.st7{fill:none;stroke:#FFFFFF;stroke-width:5;stroke-miterlimit:10;}
</style>
<g id="bg" class="st0">
	<rect class="st1" width="785" height="480"/>
</g>
<g id="Layer_1">
	<rect x="178.4" y="310" class="st2" width="463.4" height="78"/>
	<text transform="matrix(1 0 0 1 178.4132 384.1992)"><tspan x="0" y="0" class="st3 st4 st5">G</tspan><tspan x="74" y="0" class="st3 st6 st5"> R A G T</tspan></text>
	<g>
		<g>
			<path class="st7" d="M372.5,143.7l52.6,95.2l0,0c-5.9,1.3-12.2,2.1-18.7,2.1c-50.3,0-88.6-39.3-88.6-93.8
				c0-54.8,38.3-93.4,88.6-93.4c27.6,0,52.1,13.1,66.5,31.7l22.7-14.1c-20.3-25.2-48.6-43.1-89.3-43.1
				c-65.5,0-118.2,47.6-118.2,118.9c0,71.3,52.7,119.3,118.2,119.3c37.6,0,68.9-15.9,90.3-39.6v-83.1H372.5z M468.2,216.1
				c-3.7,3.7-8.6,7.6-14.5,11.2L417,169.3h51.1V216.1z"/>
		</g>
		<polyline class="st3" points="427.3,237.7 425.7,241.3 425.1,238.7 		"/>
	</g>
</g>
</svg>
