<?xml version="1.0" encoding="utf-8"?>
<!-- Generator: Adobe Illustrator 21.0.2, SVG Export Plug-In . SVG Version: 6.00 Build 0)  -->
<svg version="1.1" id="Layer_1" xmlns="http://www.w3.org/2000/svg" xmlns:xlink="http://www.w3.org/1999/xlink" x="0px" y="0px"
	 viewBox="0 0 785 480" style="enable-background:new 0 0 785 480;" xml:space="preserve">
<style type="text/css">
	.st0{fill:#FFFFFF;}
</style>
<g>
	<path class="st0" d="M441.4,238.5c0.2-0.3,0.4-0.5,0.5-0.8l11.8-26.7l89.7,58.9c0.1,0.1,0.2,0.1,0.3,0.2c3,1.6,6.2,3.2,8.9,3.2
		c1.5,0,2.8-0.5,3.9-1.7c1.7-1.9,1.6-4.3,0.6-6.9l-45-164.5c0,0,0-0.1,0-0.1c-1.7-5.6-3.3-10-7.2-10.3c-0.7-0.1-1.3,0-1.9,0.2
		c-0.6,0.1-1.2,0.4-1.7,0.8L461.7,124L391.1,20.4c-0.1-0.1-0.1-0.2-0.2-0.2c-0.8-1.1-1.5-1.9-2-2.6c-1.2-1.7-2.5-3.4-4.9-3.5
		c-0.1,0-0.2,0-0.3,0c-0.1,0-0.2,0-0.3,0c-2.4,0-3.7,1.8-4.9,3.5c-0.5,0.7-1.1,1.6-2,2.6c-0.1,0.1-0.1,0.2-0.2,0.2l-70.7,103.8
		l-38.3-32.5c-0.5-0.5-1-1-1.6-1.3c-0.4-0.2-0.9-0.4-1.3-0.5c-0.4-0.1-0.9-0.1-1.4-0.1c-4.1,0.3-5.8,5.3-7.4,10.1
		c0,0.1,0,0.1-0.1,0.2l-45.2,164.9c0,0.2-0.1,0.3-0.1,0.5c-0.7,2.3-0.6,4.3,0.8,6c1.1,1.2,2.5,1.7,4,1.7c3.1,0,6.7-2,8.9-3.2
		c0.1,0,0.2-0.1,0.3-0.2l90.8-59.6l12.6,26.7c0.1,0.1,0.1,0.2,0.2,0.3c0,0.1,0.1,0.2,0.1,0.3c2,3.9,5.1,6,8.8,6H373h28.3h31.9
		C435.6,243.5,438.9,242.6,441.4,238.5z M435.9,231.8L390,193.9l17.1-13.5l39.9,26.2L435.9,231.8z M501.8,104.3
		c0.7-1.3,1.3-2.7,2-3.8c0.2,0.5,0.4,1.2,0.6,1.9L542.8,243l-62.6-91.8L501.8,104.3z M490.6,109.9l-15.5,33.8l-9-13.2L490.6,109.9z
		 M387.6,29.2l156.8,230.1c0.3,0.4,0.6,0.9,1.1,1.6c0.3,0.4,0.8,1.1,1.3,1.9l-157-103.1c-0.3-0.2-0.7-0.4-1.1-0.5
		c-0.1,0-0.5-0.1-1.1-0.2V29.2z M381.3,166.8c0.1,0,0.2,0,0.3-0.1c0.8-0.2,1.6-0.3,2.3-0.3c0.7,0,1.5,0.1,2.3,0.3
		c0.1,0,0.2,0,0.3,0.1l13.8,9.1l-16.4,12.9l-16.2-13L381.3,166.8z M301.4,130.7l-8.7,12.8l-15.4-33.3L301.4,130.7z M263.2,102.4
		c0.2-0.7,0.5-1.4,0.7-1.9c0.5,0.9,1,1.9,1.5,2.9l0.4,0.9l21.3,45.8c0.1,0.3,0.3,0.5,0.5,0.8l-63,92.4L263.2,102.4z M220.7,262.9
		c0.5-0.7,1.1-1.6,1.7-2.5c0.3-0.4,0.5-0.7,0.7-1L379.8,29.5V159c-0.5,0.1-0.8,0.2-0.9,0.2c-0.4,0.1-0.8,0.3-1.1,0.5L220.7,262.9z
		 M401.3,235.7H373h-36.2c-0.7,0-1.4-0.9-1.8-1.7c0-0.1-0.1-0.2-0.1-0.2c0,0,0-0.1,0-0.1l-13.1-27.7l39-25.6l20.6,16.5
		c0.1,0,0.1,0.1,0.2,0.1l46.7,38.6H401.3z"/>
	<polygon class="st0" points="27.8,370 80.9,370 80.9,359.4 27.8,359.4 27.8,314.7 82.9,314.7 82.9,304 16.6,304 16.6,423.7 
		27.8,423.7 	"/>
	<path class="st0" d="M149.5,393.3h55.7l11.6,30.4h11.7L182.3,304h-9.6l-46.5,119.7h11.7L149.5,393.3z M177.5,319.4l24.5,64.2h-49.1
		L177.5,319.4z"/>
	<polygon class="st0" points="356.8,325.2 356.8,304 276.5,304 276.5,330.3 321.4,330.3 275.6,402.5 275.6,423.7 357.7,423.7 
		357.7,397.4 311,397.4 	"/>
	<polygon class="st0" points="438,376.2 478.6,376.2 478.6,350.2 438,350.2 438,330.3 485,330.3 485,304 410.7,304 410.7,423.7 
		485.9,423.7 485.9,397.4 438,397.4 	"/>
	<polygon class="st0" points="531.2,330.3 562,330.3 562,423.7 589.3,423.7 589.3,330.3 620.1,330.3 620.1,304 531.2,304 	"/>
	<path class="st0" d="M727.3,304h-34.9l-40.7,119.7h29.9l6-18.8h44.5l6,18.8H768L727.3,304z M695.9,379.2l14-43.9l14,43.9H695.9z"/>
	<rect x="16.6" y="453.7" class="st0" width="212" height="12.8"/>
</g>
</svg>
